<svg width="485" height="485" viewBox="0 0 485 485" fill="none" xmlns="http://www.w3.org/2000/svg">
<g clip-path="url(#clip0)">
<path d="M309.43 219.944C290.43 209.444 270.23 201.444 250.23 193.144C238.63 188.344 227.53 182.744 217.73 174.944C198.43 159.544 202.13 134.544 224.73 124.644C231.13 121.844 237.83 120.944 244.63 120.544C270.83 119.144 295.73 123.944 319.43 135.344C331.23 141.044 335.13 139.244 339.13 126.944C343.33 113.944 346.83 100.744 350.73 87.644C353.33 78.844 350.13 73.044 341.83 69.344C326.63 62.644 311.03 57.844 294.63 55.244C273.23 51.944 273.23 51.844 273.13 30.344C273.03 0.0440025 273.03 0.0440019 242.63 0.0440019C238.23 0.0440019 233.83 -0.0559981 229.43 0.0440019C215.23 0.444002 212.83 2.944 212.43 17.244C212.23 23.644 212.43 30.044 212.33 36.544C212.23 55.544 212.13 55.244 193.93 61.844C149.93 77.844 122.73 107.844 119.83 155.844C117.23 198.344 139.43 227.044 174.33 247.944C195.83 260.844 219.63 268.444 242.43 278.544C251.33 282.444 259.83 286.944 267.23 293.144C289.13 311.244 285.13 341.344 259.13 352.744C245.23 358.844 230.53 360.344 215.43 358.444C192.13 355.544 169.83 349.444 148.83 338.544C136.53 332.144 132.93 333.844 128.73 347.144C125.13 358.644 121.93 370.244 118.73 381.844C114.43 397.444 116.03 401.144 130.93 408.444C149.93 417.644 170.23 422.344 190.93 425.644C207.13 428.244 207.63 428.944 207.83 445.744C207.93 453.344 207.93 461.044 208.03 468.644C208.13 478.244 212.73 483.844 222.63 484.044C233.83 484.244 245.13 484.244 256.33 483.944C265.53 483.744 270.23 478.744 270.23 469.444C270.23 459.044 270.73 448.544 270.33 438.144C269.83 427.544 274.43 422.144 284.63 419.344C308.13 412.944 328.13 400.344 343.53 381.544C386.33 329.544 370.03 253.444 309.43 219.944Z" fill="#6B48FF"/>
</g>
<defs>
<clipPath id="clip0">
<rect width="484.184" height="484.184" fill="white"/>
</clipPath>
</defs>
</svg>
